<?xml version="1.0" encoding="iso-8859-1"?>
<!-- Generator: Adobe Illustrator 19.0.0, SVG Export Plug-In . SVG Version: 6.00 Build 0)  -->
<svg version="1.1" id="Capa_1" xmlns="http://www.w3.org/2000/svg" xmlns:xlink="http://www.w3.org/1999/xlink" x="0px" y="0px"
	 viewBox="0 0 512 512" style="enable-background:new 0 0 512 512;" xml:space="preserve">
<path style="fill:#F2F2F2;" d="M512,256c0,13.009-0.972,25.778-2.842,38.264c-1.358,9.059-3.187,17.972-5.475,26.697
	C474.937,430.885,374.941,512,256,512C137.352,512,37.564,431.292,8.537,321.776C2.968,300.784,0,278.737,0,256
	c0-25.276,3.668-49.706,10.491-72.767C41.838,77.291,139.891,0,256,0s214.162,77.291,245.509,183.233
	c2.727,9.206,4.942,18.631,6.625,28.233C510.673,225.928,512,240.807,512,256z"/>
<g>
	<path style="fill:#E80000;" d="M69.642,183.233v131.229c-7.429,0.763-14.848,1.578-22.267,2.424l-27.199-71.481v74.825
		c-3.877,0.502-7.764,1.014-11.64,1.546C2.968,300.784,0,278.737,0,256c0-25.276,3.668-49.706,10.491-72.767h8.119l28.766,79.935
		v-79.935H69.642z"/>
	<path style="fill:#E80000;" d="M345.492,183.235h-22.267v122.64c5.937,0.201,11.876,0.439,17.819,0.703
		c14.058,0.618,28.108,1.397,42.148,2.337v-21.619c-12.56-0.841-25.127-1.552-37.7-2.136L345.492,183.235L345.492,183.235z"/>
	<path style="fill:#E80000;" d="M401.238,310.222c7.429,0.564,14.848,1.181,22.267,1.829V183.235h-22.267V310.222z"/>
	<path style="fill:#E80000;" d="M90.559,183.235h-0.001v129.202c7.419-0.679,14.838-1.306,22.267-1.891v-0.005
		c12.995-1.028,25.997-1.922,39.006-2.68v-21.588c-13.004,0.758-26.008,1.657-39.006,2.686v-32.957h28.735v-21.248h-28.735v-30.272
		h39.009v-21.249H90.559V183.235z"/>
	<path style="fill:#E80000;" d="M166.084,204.481h22.694v101.613c7.419-0.282,14.848-0.522,22.267-0.711V204.481h22.696v-21.248
		h-67.657V204.481z"/>
	<path style="fill:#E80000;" d="M247.991,204.481h0.002v30.272h-0.002v21.248h0.002v48.798c7.429-0.052,14.848-0.052,22.267,0
		v-48.798h28.732v-21.248H270.26v-30.272h39.006v-21.248h-61.275L247.991,204.481L247.991,204.481z"/>
	<path style="fill:#E80000;" d="M509.158,294.264c-1.358,9.059-3.187,17.972-5.475,26.697c-2.685-0.366-5.371-0.711-8.067-1.055
		l-16.415-41.618l-16.321,37.7c-7.701-0.857-15.402-1.661-23.103-2.403l27.878-64.585l-25.945-65.766h24.555l14.064,36.404
		l15.715-36.404h5.465c2.727,9.206,4.942,18.631,6.625,28.233l-16.363,37.794L509.158,294.264z"/>
</g>
<g>
</g>
<g>
</g>
<g>
</g>
<g>
</g>
<g>
</g>
<g>
</g>
<g>
</g>
<g>
</g>
<g>
</g>
<g>
</g>
<g>
</g>
<g>
</g>
<g>
</g>
<g>
</g>
<g>
</g>
</svg>
